<svg width="100" height="100" viewBox="0 0 100 100" fill="none" xmlns="http://www.w3.org/2000/svg">
<g clip-path="url(#clip0_313_10816)">
<path d="M50 80.7861C77.6142 80.7861 100 75.9256 100 69.9298C100 63.934 77.6142 59.0735 50 59.0735C22.3858 59.0735 0 63.934 0 69.9298C0 75.9256 22.3858 80.7861 50 80.7861Z" fill="#E4E7EC"/>
<path d="M85.9375 40.1023L70.0844 22.2638C69.3234 21.0479 68.2125 20.3127 67.0422 20.3127H32.9578C31.7875 20.3127 30.6766 21.0479 29.9156 22.2622L14.0625 40.1038V54.4326H85.9375V40.1023Z" stroke="#98A2B3" stroke-width="1.5625"/>
<path d="M65.0203 45.0198C65.0203 42.5306 66.5734 40.4757 68.5 40.4741H85.9375V68.6028C85.9375 71.8954 83.875 74.5939 81.3281 74.5939H18.6719C16.125 74.5939 14.0625 71.8938 14.0625 68.6028V40.4741H31.5C33.4266 40.4741 34.9797 42.526 34.9797 45.0152V45.0493C34.9797 47.5385 36.55 49.5484 38.475 49.5484H61.525C63.45 49.5484 65.0203 47.5199 65.0203 45.0307V45.0198Z" fill="#F2F4F7" stroke="#98A2B3" stroke-width="1.5625"/>
</g>
<defs>
<clipPath id="clip0_313_10816">
<rect width="100" height="62.5" fill="white" transform="translate(0 19)"/>
</clipPath>
</defs>
</svg>
