<svg width="100" height="100" viewBox="0 0 100 100" fill="none" xmlns="http://www.w3.org/2000/svg">
<g clip-path="url(#clip0_101_6853)">
<path d="M49.0828 15.0666C49.3544 15.339 49.6772 15.555 50.0326 15.7022C50.388 15.8494 50.769 15.9249 51.1537 15.9244C51.903 15.9244 52.6527 15.6384 53.2244 15.0666C54.368 13.9231 54.368 12.0687 53.2244 10.925L49.304 7.00448C48.1603 5.86059 46.3062 5.86079 45.1625 7.00448C44.0188 8.14798 44.0188 10.0023 45.1623 11.146L49.0828 15.0666ZM69.4061 15.9244C70.1556 15.9244 70.9051 15.6384 71.477 15.0666L75.3973 11.146C76.541 10.0023 76.541 8.14817 75.3973 7.00448C74.2538 5.86059 72.3994 5.86079 71.2558 7.00448L67.3354 10.925C66.1917 12.0687 66.1919 13.9231 67.3354 15.0666C67.607 15.339 67.9297 15.555 68.2851 15.7022C68.6405 15.8495 69.0214 15.925 69.4061 15.9244ZM60.2798 11.4151C61.8971 11.4151 63.2083 10.1039 63.2083 8.48652V2.94221C63.2083 1.32488 61.8971 0.0136719 60.2798 0.0136719C58.6625 0.0136719 57.3513 1.32488 57.3513 2.94221V8.48652C57.3513 10.1039 58.6625 11.4151 60.2798 11.4151Z" fill="#53B1FD"/>
<path d="M99.3739 25.0579C99.1003 24.7026 98.7488 24.4148 98.3464 24.2168C97.944 24.0188 97.5016 23.9158 97.0531 23.9158H25.7198L19.5423 2.12963C19.3685 1.51641 18.9992 0.976658 18.4908 0.59231C17.9823 0.207961 17.3623 2.61332e-06 16.7249 0L2.94807 0C1.33074 0 0.0195312 1.3112 0.0195312 2.92854C0.0195312 4.54587 1.33074 5.85708 2.94807 5.85708H14.5113L20.6802 27.6124L30.1477 63.3868C31.8207 62.7703 33.5897 62.4555 35.3726 62.4571H85.303C87.0697 62.4553 88.7954 62.9893 90.2523 63.9886L99.8842 27.5939C100.117 26.7149 99.9282 25.7782 99.3739 25.0579ZM86.1129 81.0797L60.2797 81.0285H35.3726C33.482 81.0285 31.9441 79.4905 31.9441 77.6C31.9441 75.7095 33.4822 74.1715 35.3726 74.1715H85.303C86.9204 74.1715 88.2316 72.8603 88.2316 71.2429C88.2316 69.6256 86.9204 68.3144 85.303 68.3144H35.3726C30.2524 68.3144 26.087 72.4799 26.087 77.6C26.087 79.9991 27.0015 82.1885 28.5003 83.8382C26.7846 85.5528 25.7219 87.9206 25.7219 90.532C25.7219 95.7528 29.9695 100 35.1903 100C40.4111 100 44.6585 95.7528 44.6585 90.532C44.6596 89.2801 44.411 88.0405 43.9273 86.8858H76.8404C76.3567 88.0405 76.1081 89.2801 76.1092 90.532C76.1092 95.7528 80.3566 100 85.5774 100C90.7982 100 95.0455 95.7528 95.0455 90.532C95.0453 85.4909 91.0853 81.3585 86.1129 81.0797Z" fill="#98A2B3"/>
</g>
<defs>
<clipPath id="clip0_101_6853">
<rect width="100" height="100" fill="white"/>
</clipPath>
</defs>
</svg>
