
<svg width="20" height="20" viewBox="0 0 20 20" fill="none" xmlns="http://www.w3.org/2000/svg">
<g clip-path="url(#clip0_426_1696)">
<path d="M7.49935 7.49984H7.50768M12.4994 12.4998H12.5077M13.3327 6.6665L6.66602 13.3332M14.917 4.16526C15.0886 4.58028 15.418 4.91017 15.8327 5.0824L17.287 5.68482C17.7021 5.85674 18.0318 6.1865 18.2037 6.60155C18.3757 7.01661 18.3757 7.48296 18.2037 7.89801L17.6018 9.35134C17.4298 9.76658 17.4296 10.2334 17.6023 10.6484L18.2032 12.1013C18.2885 12.3069 18.3324 12.5273 18.3324 12.7498C18.3324 12.9723 18.2886 13.1927 18.2035 13.3983C18.1183 13.6039 17.9935 13.7907 17.8361 13.948C17.6787 14.1054 17.4919 14.2301 17.2863 14.3152L15.833 14.9172C15.418 15.0888 15.0881 15.4182 14.9159 15.833L14.3135 17.2874C14.1416 17.7024 13.8118 18.0322 13.3968 18.2041C12.9817 18.376 12.5154 18.376 12.1004 18.2041L10.6471 17.6021C10.232 17.4306 9.76587 17.431 9.35108 17.6031L7.89676 18.2046C7.48195 18.3762 7.01602 18.376 6.60132 18.2042C6.18662 18.0324 5.85706 17.7031 5.68503 17.2885L5.08245 15.8337C4.91085 15.4186 4.58147 15.0888 4.16672 14.9165L2.7124 14.3141C2.29754 14.1423 1.9679 13.8127 1.79592 13.3979C1.62394 12.9831 1.62371 12.5169 1.79527 12.102L2.39724 10.6486C2.56873 10.2336 2.56838 9.76738 2.39626 9.35257L1.79516 7.89716C1.70993 7.69159 1.66605 7.47124 1.66602 7.2487C1.66598 7.02616 1.70979 6.8058 1.79495 6.6002C1.88011 6.3946 2.00494 6.2078 2.16232 6.05046C2.3197 5.89313 2.50654 5.76835 2.71215 5.68326L4.16543 5.08127C4.58007 4.90981 4.90975 4.58084 5.0821 4.16655L5.6845 2.71218C5.85642 2.29712 6.18616 1.96737 6.6012 1.79544C7.01624 1.62352 7.48257 1.62352 7.89761 1.79544L9.35089 2.39743C9.76594 2.56893 10.2321 2.56858 10.6469 2.39646L12.1018 1.79638C12.5168 1.62455 12.983 1.62459 13.398 1.79648C13.813 1.96836 14.1427 2.29803 14.3146 2.71297L14.9172 4.16778L14.917 4.16526ZM7.91602 7.49984C7.91602 7.72996 7.72947 7.9165 7.49935 7.9165C7.26923 7.9165 7.08268 7.72996 7.08268 7.49984C7.08268 7.26972 7.26923 7.08317 7.49935 7.08317C7.72947 7.08317 7.91602 7.26972 7.91602 7.49984ZM12.916 12.4998C12.916 12.73 12.7295 12.9165 12.4994 12.9165C12.2692 12.9165 12.0827 12.73 12.0827 12.4998C12.0827 12.2697 12.2692 12.0832 12.4994 12.0832C12.7295 12.0832 12.916 12.2697 12.916 12.4998Z" stroke="#1849A9" stroke-width="1.67" stroke-linecap="round" stroke-linejoin="round"/>
</g>
<defs>
<clipPath id="clip0_426_1696">
<rect width="20" height="20" fill="white"/>
</clipPath>
</defs>
</svg>
