<svg width="118" height="118" viewBox="0 0 118 118" fill="none" xmlns="http://www.w3.org/2000/svg">
<rect x="9" y="9" width="100" height="100" rx="50" fill="#D1FADF"/>
<rect x="9" y="9" width="100" height="100" rx="50" stroke="#ECFDF3" stroke-width="16.6667"/>
<path d="M79.8327 57.0839V59.0005C79.8301 63.4931 78.3754 67.8644 75.6855 71.4627C72.9955 75.0609 69.2145 77.6932 64.9063 78.967C60.5982 80.2408 55.9936 80.0878 51.7795 78.5309C47.5654 76.974 43.9674 74.0966 41.5222 70.3278C39.077 66.5589 37.9156 62.1007 38.2112 57.6179C38.5068 53.135 40.2435 48.8679 43.1624 45.4528C46.0813 42.0377 50.026 39.6576 54.4081 38.6675C58.7902 37.6774 63.3749 38.1304 67.4785 39.9589M79.8327 42.3339L58.9994 63.188L52.7494 56.938" stroke="#039855" stroke-width="4.16667" stroke-linecap="round" stroke-linejoin="round"/>
</svg>
