<svg width="24" height="24" viewBox="0 0 24 24" fill="none" xmlns="http://www.w3.org/2000/svg">
<g clip-path="url(#clip0_43_808)">
<path fill-rule="evenodd" clip-rule="evenodd" d="M12 4C7.5816 4 4 7.5872 4 12.0136C4 15.5536 6.292 18.5576 9.4712 19.6168C9.8712 19.6904 10.0168 19.4432 10.0168 19.2304C10.0168 19.0408 10.0104 18.536 10.0064 17.868C7.7808 18.352 7.3112 16.7936 7.3112 16.7936C6.948 15.8672 6.4232 15.6208 6.4232 15.6208C5.6968 15.1248 6.4784 15.1344 6.4784 15.1344C7.2808 15.1904 7.7032 15.96 7.7032 15.96C8.4168 17.184 9.576 16.8304 10.0312 16.6256C10.1048 16.108 10.3112 15.7552 10.54 15.5552C8.764 15.3528 6.896 14.6648 6.896 11.5944C6.896 10.72 7.208 10.004 7.7192 9.444C7.6368 9.2416 7.3624 8.4264 7.7976 7.324C7.7976 7.324 8.4696 7.108 9.9976 8.1448C10.6502 7.96681 11.3236 7.87615 12 7.8752C12.68 7.8784 13.364 7.9672 14.0032 8.1448C15.5304 7.108 16.2008 7.3232 16.2008 7.3232C16.6376 8.4264 16.3624 9.2416 16.2808 9.444C16.7928 10.004 17.1032 10.72 17.1032 11.5944C17.1032 14.6728 15.232 15.3504 13.4504 15.5488C13.7376 15.796 13.9928 16.2848 13.9928 17.0328C13.9928 18.1032 13.9832 18.968 13.9832 19.2304C13.9832 19.4448 14.1272 19.6944 14.5336 19.616C16.1266 19.0817 17.5115 18.0602 18.4924 16.696C19.4733 15.3318 20.0007 13.6939 20 12.0136C20 7.5872 16.4176 4 12 4Z" fill="white"/>
</g>
<defs>
<clipPath id="clip0_43_808">
<rect width="16" height="16" fill="white" transform="translate(4 4)"/>
</clipPath>
</defs>
</svg>
